<mxfile host="app.diagrams.net" agent="Mozilla/5.0 (Windows NT 10.0; Win64; x64) AppleWebKit/537.36 (KHTML, like Gecko) Chrome/134.0.0.0 Safari/537.36 OPR/119.0.0.0" version="26.2.14">
  <diagram id="prtHgNgQTEPvFCAcTncT" name="Page-1">
    <mxGraphModel dx="1240" dy="653" grid="1" gridSize="10" guides="1" tooltips="1" connect="1" arrows="1" fold="1" page="1" pageScale="1" pageWidth="827" pageHeight="1169" math="0" shadow="0">
      <root>
        <mxCell id="0" />
        <mxCell id="1" parent="0" />
        <mxCell id="arY7sTptiycfzTkwCi7o-3" value="" style="edgeStyle=orthogonalEdgeStyle;rounded=0;orthogonalLoop=1;jettySize=auto;html=1;" edge="1" parent="1" source="arY7sTptiycfzTkwCi7o-1" target="arY7sTptiycfzTkwCi7o-2">
          <mxGeometry relative="1" as="geometry" />
        </mxCell>
        <mxCell id="arY7sTptiycfzTkwCi7o-1" value="Database&lt;div&gt;(ej Materials Project)&lt;/div&gt;" style="shape=cylinder3;whiteSpace=wrap;html=1;boundedLbl=1;backgroundOutline=1;size=15;fillColor=#DBFCFF;" vertex="1" parent="1">
          <mxGeometry x="10" y="170" width="100" height="120" as="geometry" />
        </mxCell>
        <mxCell id="arY7sTptiycfzTkwCi7o-5" value="" style="edgeStyle=orthogonalEdgeStyle;rounded=0;orthogonalLoop=1;jettySize=auto;html=1;" edge="1" parent="1" source="arY7sTptiycfzTkwCi7o-2" target="arY7sTptiycfzTkwCi7o-4">
          <mxGeometry relative="1" as="geometry" />
        </mxCell>
        <mxCell id="arY7sTptiycfzTkwCi7o-2" value="Simulation sample building&lt;div&gt;(LLM?)&lt;/div&gt;" style="whiteSpace=wrap;html=1;fillColor=#DBFCFF;" vertex="1" parent="1">
          <mxGeometry x="130" y="160" width="90" height="140" as="geometry" />
        </mxCell>
        <mxCell id="arY7sTptiycfzTkwCi7o-9" value="" style="edgeStyle=orthogonalEdgeStyle;rounded=0;orthogonalLoop=1;jettySize=auto;html=1;" edge="1" parent="1" source="arY7sTptiycfzTkwCi7o-4" target="arY7sTptiycfzTkwCi7o-8">
          <mxGeometry relative="1" as="geometry" />
        </mxCell>
        <mxCell id="arY7sTptiycfzTkwCi7o-4" value="PIRIS model &quot;Training&quot;" style="whiteSpace=wrap;html=1;fillColor=light-dark(#FFE599,#FFE599);" vertex="1" parent="1">
          <mxGeometry x="240" y="200" width="120" height="60" as="geometry" />
        </mxCell>
        <mxCell id="arY7sTptiycfzTkwCi7o-11" value="" style="edgeStyle=orthogonalEdgeStyle;rounded=0;orthogonalLoop=1;jettySize=auto;html=1;" edge="1" parent="1" source="arY7sTptiycfzTkwCi7o-8" target="arY7sTptiycfzTkwCi7o-10">
          <mxGeometry relative="1" as="geometry" />
        </mxCell>
        <mxCell id="arY7sTptiycfzTkwCi7o-8" value="Optimal Ion positions" style="whiteSpace=wrap;html=1;fillColor=#CCFFCC;" vertex="1" parent="1">
          <mxGeometry x="380" y="160" width="100" height="140" as="geometry" />
        </mxCell>
        <mxCell id="arY7sTptiycfzTkwCi7o-15" value="" style="edgeStyle=orthogonalEdgeStyle;rounded=0;orthogonalLoop=1;jettySize=auto;html=1;" edge="1" parent="1" source="arY7sTptiycfzTkwCi7o-10" target="arY7sTptiycfzTkwCi7o-14">
          <mxGeometry relative="1" as="geometry" />
        </mxCell>
        <mxCell id="arY7sTptiycfzTkwCi7o-10" value="PIRIS Inference" style="whiteSpace=wrap;html=1;fillColor=light-dark(#FFE599,#FFE599);" vertex="1" parent="1">
          <mxGeometry x="500" y="200" width="120" height="60" as="geometry" />
        </mxCell>
        <mxCell id="arY7sTptiycfzTkwCi7o-14" value="Optimal adsorption parameters (Energy, Adsorption capacity)" style="shape=parallelogram;perimeter=parallelogramPerimeter;whiteSpace=wrap;html=1;fixedSize=1;fillColor=#CCFFCC;" vertex="1" parent="1">
          <mxGeometry x="630" y="175" width="323" height="110" as="geometry" />
        </mxCell>
        <mxCell id="arY7sTptiycfzTkwCi7o-16" value="" style="swimlane;startSize=0;strokeColor=light-dark(#FFE599,#FFE599);" vertex="1" parent="1">
          <mxGeometry x="330" y="345" width="400" height="230" as="geometry" />
        </mxCell>
        <mxCell id="arY7sTptiycfzTkwCi7o-31" style="edgeStyle=orthogonalEdgeStyle;rounded=0;orthogonalLoop=1;jettySize=auto;html=1;exitX=1;exitY=0.5;exitDx=0;exitDy=0;entryX=0;entryY=0.5;entryDx=0;entryDy=0;" edge="1" parent="arY7sTptiycfzTkwCi7o-16" source="arY7sTptiycfzTkwCi7o-23" target="arY7sTptiycfzTkwCi7o-30">
          <mxGeometry relative="1" as="geometry" />
        </mxCell>
        <mxCell id="arY7sTptiycfzTkwCi7o-23" value="Bayesian Optimization" style="whiteSpace=wrap;html=1;rounded=0;fillColor=light-dark(#FFE599,#FFE599);" vertex="1" parent="arY7sTptiycfzTkwCi7o-16">
          <mxGeometry x="84" y="25" width="120" height="60" as="geometry" />
        </mxCell>
        <mxCell id="arY7sTptiycfzTkwCi7o-32" style="edgeStyle=orthogonalEdgeStyle;rounded=0;orthogonalLoop=1;jettySize=auto;html=1;exitX=1;exitY=0.5;exitDx=0;exitDy=0;" edge="1" parent="arY7sTptiycfzTkwCi7o-16" source="arY7sTptiycfzTkwCi7o-27" target="arY7sTptiycfzTkwCi7o-30">
          <mxGeometry relative="1" as="geometry" />
        </mxCell>
        <mxCell id="arY7sTptiycfzTkwCi7o-27" value="Hamiltonian parameters inference" style="rounded=0;whiteSpace=wrap;html=1;fillColor=light-dark(#FFE599,#FFE599);" vertex="1" parent="arY7sTptiycfzTkwCi7o-16">
          <mxGeometry x="84" y="135" width="120" height="60" as="geometry" />
        </mxCell>
        <mxCell id="arY7sTptiycfzTkwCi7o-30" value="Energy minimization" style="rounded=0;whiteSpace=wrap;html=1;fillColor=#FFB366;" vertex="1" parent="arY7sTptiycfzTkwCi7o-16">
          <mxGeometry x="260" y="85" width="120" height="60" as="geometry" />
        </mxCell>
        <mxCell id="arY7sTptiycfzTkwCi7o-17" value="PIRIS MODEL" style="text;html=1;align=center;verticalAlign=middle;whiteSpace=wrap;rounded=0;" vertex="1" parent="1">
          <mxGeometry x="480" y="585" width="100" height="30" as="geometry" />
        </mxCell>
        <mxCell id="arY7sTptiycfzTkwCi7o-22" value="" style="edgeStyle=orthogonalEdgeStyle;rounded=0;orthogonalLoop=1;jettySize=auto;html=1;" edge="1" parent="1" source="arY7sTptiycfzTkwCi7o-18" target="arY7sTptiycfzTkwCi7o-21">
          <mxGeometry relative="1" as="geometry" />
        </mxCell>
        <mxCell id="arY7sTptiycfzTkwCi7o-18" value="SAMPLE" style="rounded=0;whiteSpace=wrap;html=1;fillColor=#DBFCFF;" vertex="1" parent="1">
          <mxGeometry x="10" y="430" width="120" height="60" as="geometry" />
        </mxCell>
        <mxCell id="arY7sTptiycfzTkwCi7o-25" style="edgeStyle=orthogonalEdgeStyle;rounded=0;orthogonalLoop=1;jettySize=auto;html=1;exitX=1;exitY=0.5;exitDx=0;exitDy=0;entryX=0;entryY=0.5;entryDx=0;entryDy=0;" edge="1" parent="1" source="arY7sTptiycfzTkwCi7o-21" target="arY7sTptiycfzTkwCi7o-23">
          <mxGeometry relative="1" as="geometry" />
        </mxCell>
        <mxCell id="arY7sTptiycfzTkwCi7o-29" style="edgeStyle=orthogonalEdgeStyle;rounded=0;orthogonalLoop=1;jettySize=auto;html=1;exitX=1;exitY=0.5;exitDx=0;exitDy=0;entryX=0;entryY=0.5;entryDx=0;entryDy=0;" edge="1" parent="1" source="arY7sTptiycfzTkwCi7o-21" target="arY7sTptiycfzTkwCi7o-27">
          <mxGeometry relative="1" as="geometry" />
        </mxCell>
        <mxCell id="arY7sTptiycfzTkwCi7o-21" value="Starting position posibilities" style="whiteSpace=wrap;html=1;rounded=0;fillColor=#DBFCFF;" vertex="1" parent="1">
          <mxGeometry x="180" y="430" width="120" height="60" as="geometry" />
        </mxCell>
        <mxCell id="arY7sTptiycfzTkwCi7o-35" value="Optimal positions" style="rounded=0;whiteSpace=wrap;html=1;fillColor=light-dark(#CCFFCC,#B9E0A5);" vertex="1" parent="1">
          <mxGeometry x="760" y="430" width="120" height="60" as="geometry" />
        </mxCell>
        <mxCell id="arY7sTptiycfzTkwCi7o-36" style="edgeStyle=orthogonalEdgeStyle;rounded=0;orthogonalLoop=1;jettySize=auto;html=1;exitX=1;exitY=0.5;exitDx=0;exitDy=0;entryX=0;entryY=0.5;entryDx=0;entryDy=0;" edge="1" parent="1" source="arY7sTptiycfzTkwCi7o-30" target="arY7sTptiycfzTkwCi7o-35">
          <mxGeometry relative="1" as="geometry" />
        </mxCell>
      </root>
    </mxGraphModel>
  </diagram>
</mxfile>
